<?xml version="1.0" encoding="UTF-8" standalone="no"?>
<svg width="550px" height="550px" viewBox="0 0 550 550" version="1.1" xmlns="http://www.w3.org/2000/svg" xmlns:xlink="http://www.w3.org/1999/xlink">
    <!-- Generator: Sketch 3.8.3 (29802) - http://www.bohemiancoding.com/sketch -->
    <title>logo only copy</title>
    <desc>Created with Sketch.</desc>
    <defs></defs>
    <g id="iPhone" stroke="none" stroke-width="1" fill="none" fill-rule="evenodd">
        <g id="logo-only-copy">
            <g id="Group-2-Copy" transform="translate(89.000000, 106.000000)">
                <g id="Page-1-Copy" transform="translate(219.000000, 185.000000)" stroke="#000000" fill="#000000">
                    <path d="M109.614737,59.9827586 C110.462105,41.7344828 95.7178947,27.0344828 76.7368421,27.0344828 C57.7557895,27.0344828 43.0115789,41.7344828 43.8589474,59.9827586 C44.5368421,78.2310345 59.2810526,92.9310345 76.7368421,92.9310345 C94.1926316,92.9310345 108.936842,78.2310345 109.614737,59.9827586 L109.614737,59.9827586 Z M126.223158,124.696552 L126.223158,121.824155 C126.223158,108.81381 115.715789,98.337931 102.666316,98.337931 L50.9768421,98.337931 C37.9273684,98.337931 27.42,108.813793 27.42,121.824155 L27.42,124.696552 C39.9610526,137.368966 57.4168421,145.310345 76.7368421,145.310345 C96.0568421,145.310345 113.512632,137.368966 126.223158,124.696552 L126.223158,124.696552 Z M76.7368421,145.310345 C38.4357895,145.310345 7.25263158,114.22069 7.25263158,76.0344828 C7.25263158,37.8482759 38.4357895,6.75862069 76.7368421,6.75862069 C115.037895,6.75862069 146.221053,37.8482759 146.221053,76.0344828 C146.221053,114.22069 115.037895,145.310345 76.7368421,145.310345 L76.7368421,145.310345 Z M76.7368421,152.068966 C118.935789,152.068966 153,118.106897 153,76.0344828 C153,33.962069 118.935789,0 76.7368421,0 C34.5378947,0 0.473684211,33.962069 0.473684211,76.0344828 C0.473684211,118.106897 34.5378947,152.068966 76.7368421,152.068966 L76.7368421,152.068966 Z" id="Fill-1"></path>
                </g>
                <g id="Page-1-Copy-4" fill="#000000">
                    <path d="M109.614737,59.9827586 C110.462105,41.7344828 95.7178947,27.0344828 76.7368421,27.0344828 C57.7557895,27.0344828 43.0115789,41.7344828 43.8589474,59.9827586 C44.5368421,78.2310345 59.2810526,92.9310345 76.7368421,92.9310345 C94.1926316,92.9310345 108.936842,78.2310345 109.614737,59.9827586 L109.614737,59.9827586 Z M126.223158,124.696552 L126.223158,121.824155 C126.223158,108.81381 115.715789,98.337931 102.666316,98.337931 L50.9768421,98.337931 C37.9273684,98.337931 27.42,108.813793 27.42,121.824155 L27.42,124.696552 C39.9610526,137.368966 57.4168421,145.310345 76.7368421,145.310345 C96.0568421,145.310345 113.512632,137.368966 126.223158,124.696552 L126.223158,124.696552 Z M76.7368421,145.310345 C38.4357895,145.310345 7.25263158,114.22069 7.25263158,76.0344828 C7.25263158,37.8482759 38.4357895,6.75862069 76.7368421,6.75862069 C115.037895,6.75862069 146.221053,37.8482759 146.221053,76.0344828 C146.221053,114.22069 115.037895,145.310345 76.7368421,145.310345 L76.7368421,145.310345 Z M76.7368421,152.068966 C118.935789,152.068966 153,118.106897 153,76.0344828 C153,33.962069 118.935789,0 76.7368421,0 C34.5378947,0 0.473684211,33.962069 0.473684211,76.0344828 C0.473684211,118.106897 34.5378947,152.068966 76.7368421,152.068966 L76.7368421,152.068966 Z" id="Fill-1"></path>
                </g>
                <g id="Page-1" transform="translate(136.000000, 112.000000)" fill="#000000">
                    <path d="M52.5,4.26513912 L5,4.26513912 L5,51.99018 L52.5,51.99018 L52.5,4.26513912 L52.5,4.26513912 Z M20.8333333,36.0818331 L20.8333333,20.1734861 L36.6666667,20.1734861 L36.6666667,36.0818331 L20.8333333,36.0818331 L20.8333333,36.0818331 Z" id="Fill-1"></path>
                    <polygon id="Fill-3" points="78.3333333 0.173486088 104.166667 0.173486088 104.166667 26.0818331 78.3333333 26.0818331"></polygon>
                    <polygon id="Fill-4" points="0.833333333 67.898527 26.6666667 67.898527 26.6666667 93.806874 0.833333333 93.806874"></polygon>
                    <path d="M52.5,51.99018 L52.5,99.7152209 L100,99.7152209 L100,51.99018 L52.5,51.99018 L52.5,51.99018 Z M68.3333333,83.806874 L68.3333333,67.898527 L84.1666667,67.898527 L84.1666667,83.806874 L68.3333333,83.806874 Z" id="Fill-5"></path>
                </g>
                <g id="Group" transform="translate(78.000000, 116.000000)" stroke="#000000" stroke-width="13" stroke-linecap="round">
                    <path d="M1.11022302e-16,-1.77635684e-15 L1.11022302e-16,128.198667 C1.11022302e-16,140.349599 9.85138037,150.199875 22.0045535,150.199875 L102.5,150.199875" id="Line"></path>
                </g>
                <g id="Group" transform="translate(222.000000, 161.500000) scale(-1, -1) translate(-222.000000, -161.500000) translate(150.000000, 37.000000)">
                    <path d="M0,102 L0,205.194641 C0,217.347796 9.85409515,227.199875 22.0038771,227.199875 L105.5,227.199875" id="Line" stroke="#000000" stroke-width="13" stroke-linecap="square"></path>
                    <path d="M106,235.055556 L106,248.379759 L140.488236,230.423381 C143.913573,228.639972 143.909559,225.745809 140.488236,223.963757 L106,206 L106,219.315498 L106,235.055556 Z" id="Path" fill="#000000"></path>
                    <path d="M74.6346236,29.0555561 L74.6346236,42.3797594 L109.122859,24.4233812 C112.548196,22.6399717 112.544182,19.7458087 109.122859,17.963757 L74.6346236,-7.10542736e-14 L74.6346236,13.3154975 L74.6346236,29.0555561 Z" id="Path" fill="#000000" transform="translate(93.162490, 21.189880) scale(-1, 1) translate(-93.162490, -21.189880) "></path>
                </g>
            </g>
        </g>
    </g>
</svg>